<svg width="2838" height="1707" viewBox="0 0 2838 1707" fill="none" xmlns="http://www.w3.org/2000/svg">
<rect width="2560" height="1706.67" transform="translate(139)" fill="white"/>
<g filter="url(#filter0_bd_65_143)">
<path d="M1033.94 781.197C1021.64 781.197 1010.8 779.977 1001.42 777.535C992.146 774.996 985.018 771.92 980.037 768.307C975.154 764.693 972.713 761.275 972.713 758.053C972.713 755.514 973.641 752.389 975.496 748.678C977.449 744.967 979.744 741.793 982.381 739.156C985.018 736.422 987.215 735.055 988.973 735.055C990.047 735.055 992.342 735.982 995.857 737.838C1001.13 740.572 1006.11 742.77 1010.8 744.43C1015.58 746.09 1021.05 746.92 1027.21 746.92C1034.04 746.92 1039.8 745.602 1044.49 742.965C1049.28 740.23 1051.67 735.494 1051.67 728.756C1051.67 724.85 1050.45 721.48 1048.01 718.648C1045.56 715.816 1042.44 713.424 1038.63 711.471C1034.82 709.518 1029.65 707.223 1023.1 704.586L1011.53 699.605C1004.5 696.188 998.445 692.428 993.367 688.326C988.387 684.225 984.285 678.805 981.062 672.066C977.938 665.328 976.375 657.076 976.375 647.311C976.375 635.396 979.305 625.484 985.164 617.574C991.023 609.664 998.641 603.854 1008.02 600.143C1017.39 596.432 1027.45 594.576 1038.19 594.576C1046.98 594.576 1054.94 595.504 1062.07 597.359C1069.2 599.117 1074.76 601.412 1078.77 604.244C1082.87 607.076 1084.92 609.908 1084.92 612.74C1084.92 615.084 1084.14 618.111 1082.58 621.822C1081.11 625.436 1079.26 628.609 1077.01 631.344C1074.76 634.078 1072.66 635.445 1070.71 635.445C1069.83 635.445 1068.27 634.957 1066.02 633.98C1062.41 632.516 1058.75 631.344 1055.04 630.465C1051.42 629.488 1046.98 629 1041.71 629C1032.62 629 1026.33 630.465 1022.81 633.395C1019.29 636.227 1017.54 639.596 1017.54 643.502C1017.54 647.994 1018.71 651.754 1021.05 654.781C1023.49 657.809 1026.52 660.299 1030.13 662.252C1033.85 664.205 1038.97 666.451 1045.52 668.99C1055.38 673.189 1063.44 677.193 1069.69 681.002C1075.94 684.713 1081.31 690.084 1085.8 697.115C1090.39 704.146 1092.68 713.131 1092.68 724.068C1092.68 737.447 1089.85 748.434 1084.19 757.027C1078.62 765.523 1071.39 771.676 1062.51 775.484C1053.72 779.293 1044.2 781.197 1033.94 781.197ZM1164.31 779.439C1153.87 779.439 1148.64 776.705 1148.64 771.236V630.758H1107.33C1104.6 630.758 1102.6 629.732 1101.33 627.682C1100.15 625.631 1099.57 622.311 1099.57 617.721V609.811C1099.57 605.221 1100.15 601.9 1101.33 599.85C1102.6 597.799 1104.6 596.773 1107.33 596.773H1230.53C1233.26 596.773 1235.21 597.799 1236.38 599.85C1237.65 601.9 1238.29 605.221 1238.29 609.811V617.721C1238.29 622.311 1237.65 625.631 1236.38 627.682C1235.21 629.732 1233.26 630.758 1230.53 630.758H1189.07V771.236C1189.07 776.705 1183.85 779.439 1173.4 779.439H1164.31ZM1245.76 779.439C1235.12 779.439 1229.79 777.535 1229.79 773.727C1229.79 772.652 1230.13 771.09 1230.82 769.039L1288.24 601.607C1289.61 597.896 1294.54 596.041 1303.04 596.041H1316.51C1325.01 596.041 1329.94 597.896 1331.31 601.607L1388.73 769.039C1389.22 770.992 1389.46 772.555 1389.46 773.727C1389.46 775.68 1388.39 777.145 1386.24 778.121C1384.19 779 1380.92 779.439 1376.42 779.439H1365C1360.9 779.439 1357.58 779.049 1355.04 778.268C1352.6 777.389 1351.08 775.973 1350.5 774.02L1339.95 742.232H1278.57L1268.03 774.02C1266.95 777.633 1262.95 779.439 1256.01 779.439H1245.76ZM1328.82 707.809L1314.02 661.52C1313.14 659.176 1312.36 656.49 1311.68 653.463C1311.09 650.436 1310.55 647.555 1310.07 644.82H1309.04L1308.46 648.043C1307.48 653.805 1306.36 658.297 1305.09 661.52L1289.71 707.809H1328.82ZM1423.15 779.439C1412.7 779.439 1407.48 776.705 1407.48 771.236V607.027C1407.48 603.414 1408.31 600.826 1409.97 599.264C1411.63 597.604 1414.27 596.773 1417.88 596.773H1468.71C1511.87 596.773 1533.46 613.033 1533.46 645.553C1533.46 655.416 1530.67 663.912 1525.11 671.041C1519.64 678.17 1512.26 683.492 1502.99 687.008V688.033C1506.21 689.4 1509.58 692.33 1513.09 696.822C1516.71 701.314 1519.59 706.393 1521.74 712.057L1544.73 769.332C1545.52 771.676 1545.91 773.336 1545.91 774.312C1545.91 777.73 1540.73 779.439 1530.38 779.439H1519.69C1510.99 779.439 1505.96 777.633 1504.6 774.02L1483.94 723.189C1481.99 719.283 1480.09 716.256 1478.23 714.107C1476.47 711.959 1473.98 710.348 1470.76 709.273C1467.54 708.102 1463.19 707.516 1457.72 707.516H1447.62V771.236C1447.62 776.705 1442.39 779.439 1431.94 779.439H1423.15ZM1472.22 672.945C1475.74 672.945 1479.06 671.969 1482.19 670.016C1485.31 667.965 1487.8 665.23 1489.66 661.812C1491.51 658.395 1492.44 654.635 1492.44 650.533C1492.44 644.479 1490.44 639.693 1486.43 636.178C1482.53 632.564 1477.21 630.758 1470.47 630.758H1447.62V672.945H1472.22ZM1703.96 781.197C1688.14 781.197 1674.57 778.707 1663.24 773.727C1652.01 768.746 1643.42 761.568 1637.46 752.193C1631.5 742.721 1628.52 731.344 1628.52 718.062V604.537C1628.52 601.705 1629.79 599.605 1632.33 598.238C1634.87 596.773 1638.83 596.041 1644.2 596.041H1652.99C1658.36 596.041 1662.26 596.773 1664.71 598.238C1667.24 599.605 1668.51 601.705 1668.51 604.537V715.426C1668.51 721.48 1669.98 726.9 1672.91 731.686C1675.94 736.471 1680.13 740.23 1685.51 742.965C1690.88 745.602 1697.03 746.92 1703.96 746.92C1710.9 746.92 1717.05 745.602 1722.42 742.965C1727.89 740.23 1732.14 736.471 1735.16 731.686C1738.19 726.9 1739.71 721.48 1739.71 715.426V604.537C1739.71 601.705 1740.93 599.605 1743.37 598.238C1745.91 596.773 1749.86 596.041 1755.23 596.041H1763.88C1769.25 596.041 1773.15 596.773 1775.59 598.238C1778.13 599.605 1779.4 601.705 1779.4 604.537V718.062C1779.4 731.344 1776.42 742.721 1770.47 752.193C1764.51 761.568 1755.87 768.746 1744.54 773.727C1733.31 778.707 1719.78 781.197 1703.96 781.197ZM1828.77 779.732C1823.49 779.732 1819.54 779 1816.9 777.535C1814.36 776.07 1813.09 773.971 1813.09 771.236V604.537C1813.09 598.775 1818.32 595.895 1828.77 595.895H1837.85C1843.22 595.895 1847.13 596.627 1849.57 598.092C1852.11 599.557 1853.38 601.705 1853.38 604.537V771.236C1853.38 776.9 1848.2 779.732 1837.85 779.732H1828.77Z" fill="url(#paint0_linear_65_143)"/>
</g>
<g filter="url(#filter1_f_65_143)">
<rect width="1814" height="328" transform="translate(512 538)" fill="url(#paint1_linear_65_143)" fill-opacity="0.4"/>
</g>
<path d="M724.62 1108.67L722.94 1086.35V940.667H754.62V1108.67H724.62ZM686.94 1111.55C675.9 1111.55 666.3 1108.99 658.14 1103.87C650.14 1098.75 643.9 1091.47 639.42 1082.03C634.94 1072.59 632.7 1061.47 632.7 1048.67C632.7 1035.71 634.94 1024.59 639.42 1015.31C643.9 1005.87 650.14 998.587 658.14 993.467C666.3 988.347 675.9 985.787 686.94 985.787C697.02 985.787 705.5 988.347 712.38 993.467C719.42 998.587 724.78 1005.87 728.46 1015.31C732.14 1024.59 733.98 1035.71 733.98 1048.67C733.98 1061.47 732.14 1072.59 728.46 1082.03C724.78 1091.47 719.42 1098.75 712.38 1103.87C705.5 1108.99 697.02 1111.55 686.94 1111.55ZM695.1 1082.51C700.54 1082.51 705.34 1081.07 709.5 1078.19C713.82 1075.31 717.18 1071.31 719.58 1066.19C721.98 1061.07 723.18 1055.23 723.18 1048.67C723.18 1042.11 721.98 1036.27 719.58 1031.15C717.18 1026.03 713.82 1022.11 709.5 1019.39C705.34 1016.51 700.46 1015.07 694.86 1015.07C689.1 1015.07 684.06 1016.51 679.74 1019.39C675.42 1022.11 671.98 1026.03 669.42 1031.15C666.86 1036.27 665.58 1042.11 665.58 1048.67C665.58 1055.23 666.86 1061.07 669.42 1066.19C671.98 1071.31 675.42 1075.31 679.74 1078.19C684.22 1081.07 689.34 1082.51 695.1 1082.51ZM836.154 1111.55C824.314 1111.55 813.834 1108.91 804.714 1103.63C795.594 1098.19 788.394 1090.75 783.114 1081.31C777.994 1071.87 775.434 1060.99 775.434 1048.67C775.434 1036.35 778.074 1025.47 783.354 1016.03C788.794 1006.59 796.154 999.227 805.434 993.947C814.874 988.507 825.674 985.787 837.834 985.787C848.394 985.787 858.074 988.587 866.874 994.187C875.834 999.627 882.954 1007.71 888.234 1018.43C893.674 1028.99 896.394 1041.87 896.394 1057.07H805.434L808.314 1054.19C808.314 1060.11 809.754 1065.31 812.634 1069.79C815.674 1074.11 819.514 1077.47 824.154 1079.87C828.954 1082.11 834.074 1083.23 839.514 1083.23C846.074 1083.23 851.434 1081.87 855.594 1079.15C859.754 1076.27 862.954 1072.59 865.194 1068.11L893.514 1079.15C890.154 1085.87 885.754 1091.71 880.314 1096.67C875.034 1101.47 868.714 1105.15 861.354 1107.71C853.994 1110.27 845.594 1111.55 836.154 1111.55ZM809.994 1036.43L807.114 1033.55H864.954L862.314 1036.43C862.314 1030.67 860.954 1026.11 858.234 1022.75C855.514 1019.23 852.154 1016.67 848.154 1015.07C844.314 1013.47 840.554 1012.67 836.874 1012.67C833.194 1012.67 829.274 1013.47 825.114 1015.07C820.954 1016.67 817.354 1019.23 814.314 1022.75C811.434 1026.11 809.994 1030.67 809.994 1036.43ZM959.685 1111.55C952.005 1111.55 944.805 1110.43 938.085 1108.19C931.365 1105.79 925.445 1102.43 920.325 1098.11C915.205 1093.63 911.205 1088.19 908.325 1081.79L935.445 1069.31C937.845 1073.15 941.125 1076.51 945.285 1079.39C949.445 1082.11 954.245 1083.47 959.685 1083.47C964.965 1083.47 969.045 1082.75 971.925 1081.31C974.805 1079.71 976.245 1077.47 976.245 1074.59C976.245 1071.71 975.045 1069.63 972.645 1068.35C970.405 1066.91 967.285 1065.71 963.285 1064.75L952.245 1061.87C940.725 1058.83 931.605 1054.03 924.885 1047.47C918.325 1040.75 915.045 1033.07 915.045 1024.43C915.045 1012.11 918.965 1002.59 926.805 995.867C934.805 989.147 946.085 985.787 960.645 985.787C968.165 985.787 975.125 986.907 981.525 989.147C988.085 991.387 993.685 994.507 998.325 998.507C1002.97 1002.51 1006.17 1007.15 1007.93 1012.43L981.765 1024.43C980.645 1021.23 977.925 1018.67 973.605 1016.75C969.285 1014.67 964.965 1013.63 960.645 1013.63C956.325 1013.63 952.965 1014.59 950.565 1016.51C948.325 1018.27 947.205 1020.75 947.205 1023.95C947.205 1026.03 948.325 1027.79 950.565 1029.23C952.805 1030.51 956.005 1031.63 960.165 1032.59L975.765 1036.43C983.605 1038.35 989.845 1041.47 994.485 1045.79C999.285 1049.95 1002.73 1054.67 1004.81 1059.95C1007.05 1065.07 1008.17 1070.11 1008.17 1075.07C1008.17 1082.27 1006.01 1088.67 1001.69 1094.27C997.525 1099.71 991.765 1103.95 984.405 1106.99C977.205 1110.03 968.965 1111.55 959.685 1111.55ZM1028.52 1108.67V988.667H1060.2V1108.67H1028.52ZM1044.36 969.227C1039.56 969.227 1035.32 967.467 1031.64 963.947C1027.96 960.267 1026.12 955.947 1026.12 950.987C1026.12 946.027 1027.96 941.787 1031.64 938.267C1035.32 934.587 1039.56 932.747 1044.36 932.747C1049.32 932.747 1053.56 934.587 1057.08 938.267C1060.76 941.787 1062.6 946.027 1062.6 950.987C1062.6 955.947 1060.76 960.267 1057.08 963.947C1053.56 967.467 1049.32 969.227 1044.36 969.227ZM1143.41 1159.79C1134.29 1159.79 1126.21 1159.15 1119.17 1157.87C1112.13 1156.59 1106.21 1154.91 1101.41 1152.83C1096.61 1150.75 1092.69 1148.67 1089.65 1146.59L1102.13 1121.15C1104.37 1122.43 1107.33 1123.87 1111.01 1125.47C1114.69 1127.23 1119.09 1128.67 1124.21 1129.79C1129.33 1131.07 1135.25 1131.71 1141.97 1131.71C1148.37 1131.71 1153.97 1130.43 1158.77 1127.87C1163.73 1125.47 1167.57 1121.63 1170.29 1116.35C1173.17 1111.23 1174.61 1104.67 1174.61 1096.67V988.667H1206.29V1095.71C1206.29 1109.15 1203.73 1120.67 1198.61 1130.27C1193.49 1140.03 1186.21 1147.39 1176.77 1152.35C1167.49 1157.31 1156.37 1159.79 1143.41 1159.79ZM1137.17 1105.31C1126.13 1105.31 1116.53 1102.91 1108.37 1098.11C1100.37 1093.31 1094.13 1086.59 1089.65 1077.95C1085.17 1069.31 1082.93 1059.07 1082.93 1047.23C1082.93 1034.75 1085.17 1023.95 1089.65 1014.83C1094.13 1005.55 1100.37 998.427 1108.37 993.467C1116.53 988.347 1126.13 985.787 1137.17 985.787C1146.77 985.787 1155.09 988.347 1162.13 993.467C1169.17 998.427 1174.61 1005.55 1178.45 1014.83C1182.29 1024.11 1184.21 1035.15 1184.21 1047.95C1184.21 1059.47 1182.29 1069.55 1178.45 1078.19C1174.61 1086.83 1169.17 1093.55 1162.13 1098.35C1155.09 1102.99 1146.77 1105.31 1137.17 1105.31ZM1146.29 1078.67C1151.73 1078.67 1156.45 1077.31 1160.45 1074.59C1164.61 1071.71 1167.81 1067.87 1170.05 1063.07C1172.29 1058.11 1173.41 1052.51 1173.41 1046.27C1173.41 1039.87 1172.21 1034.27 1169.81 1029.47C1167.57 1024.67 1164.37 1020.91 1160.21 1018.19C1156.21 1015.47 1151.49 1014.11 1146.05 1014.11C1140.45 1014.11 1135.49 1015.47 1131.17 1018.19C1126.85 1020.91 1123.49 1024.67 1121.09 1029.47C1118.69 1034.27 1117.41 1039.87 1117.25 1046.27C1117.41 1052.51 1118.69 1058.11 1121.09 1063.07C1123.49 1067.87 1126.85 1071.71 1131.17 1074.59C1135.65 1077.31 1140.69 1078.67 1146.29 1078.67ZM1233.56 1108.67V988.667H1263.32L1265.24 1010.75V1108.67H1233.56ZM1313 1108.67V1047.23H1344.68V1108.67H1313ZM1313 1047.23C1313 1039.07 1312.04 1032.75 1310.12 1028.27C1308.36 1023.79 1305.8 1020.59 1302.44 1018.67C1299.08 1016.59 1295.16 1015.55 1290.68 1015.55C1282.52 1015.39 1276.2 1017.87 1271.72 1022.99C1267.4 1028.11 1265.24 1035.71 1265.24 1045.79H1254.68C1254.68 1032.99 1256.52 1022.19 1260.2 1013.39C1264.04 1004.43 1269.32 997.627 1276.04 992.987C1282.92 988.187 1290.92 985.787 1300.04 985.787C1309.48 985.787 1317.56 987.707 1324.28 991.547C1331 995.387 1336.12 1001.39 1339.64 1009.55C1343.16 1017.55 1344.84 1027.95 1344.68 1040.75V1047.23H1313ZM1472.03 1111.55C1464.35 1111.55 1457.15 1110.43 1450.43 1108.19C1443.71 1105.79 1437.79 1102.43 1432.67 1098.11C1427.55 1093.63 1423.55 1088.19 1420.67 1081.79L1447.79 1069.31C1450.19 1073.15 1453.47 1076.51 1457.63 1079.39C1461.79 1082.11 1466.59 1083.47 1472.03 1083.47C1477.31 1083.47 1481.39 1082.75 1484.27 1081.31C1487.15 1079.71 1488.59 1077.47 1488.59 1074.59C1488.59 1071.71 1487.39 1069.63 1484.99 1068.35C1482.75 1066.91 1479.63 1065.71 1475.63 1064.75L1464.59 1061.87C1453.07 1058.83 1443.95 1054.03 1437.23 1047.47C1430.67 1040.75 1427.39 1033.07 1427.39 1024.43C1427.39 1012.11 1431.31 1002.59 1439.15 995.867C1447.15 989.147 1458.43 985.787 1472.99 985.787C1480.51 985.787 1487.47 986.907 1493.87 989.147C1500.43 991.387 1506.03 994.507 1510.67 998.507C1515.31 1002.51 1518.51 1007.15 1520.27 1012.43L1494.11 1024.43C1492.99 1021.23 1490.27 1018.67 1485.95 1016.75C1481.63 1014.67 1477.31 1013.63 1472.99 1013.63C1468.67 1013.63 1465.31 1014.59 1462.91 1016.51C1460.67 1018.27 1459.55 1020.75 1459.55 1023.95C1459.55 1026.03 1460.67 1027.79 1462.91 1029.23C1465.15 1030.51 1468.35 1031.63 1472.51 1032.59L1488.11 1036.43C1495.95 1038.35 1502.19 1041.47 1506.83 1045.79C1511.63 1049.95 1515.07 1054.67 1517.15 1059.95C1519.39 1065.07 1520.51 1070.11 1520.51 1075.07C1520.51 1082.27 1518.35 1088.67 1514.03 1094.27C1509.87 1099.71 1504.11 1103.95 1496.75 1106.99C1489.55 1110.03 1481.31 1111.55 1472.03 1111.55ZM1562.95 1159.55C1558.63 1159.55 1553.83 1158.67 1548.55 1156.91C1543.43 1155.31 1538.87 1153.39 1534.87 1151.15L1546.63 1125.47C1549.35 1126.91 1551.83 1128.03 1554.07 1128.83C1556.47 1129.79 1558.55 1130.27 1560.31 1130.27C1563.67 1130.27 1566.63 1129.31 1569.19 1127.39C1571.75 1125.63 1573.83 1122.99 1575.43 1119.47L1589.59 1086.11L1627.75 988.667H1662.55L1608.07 1118.99C1604.71 1126.99 1601.19 1134.03 1597.51 1140.11C1593.83 1146.35 1589.27 1151.15 1583.83 1154.51C1578.55 1157.87 1571.59 1159.55 1562.95 1159.55ZM1581.19 1108.67L1526.23 988.667H1561.03L1601.11 1086.11L1611.43 1108.67H1581.19ZM1722.11 1111.55C1714.43 1111.55 1707.23 1110.43 1700.51 1108.19C1693.79 1105.79 1687.87 1102.43 1682.75 1098.11C1677.63 1093.63 1673.63 1088.19 1670.75 1081.79L1697.87 1069.31C1700.27 1073.15 1703.55 1076.51 1707.71 1079.39C1711.87 1082.11 1716.67 1083.47 1722.11 1083.47C1727.39 1083.47 1731.47 1082.75 1734.35 1081.31C1737.23 1079.71 1738.67 1077.47 1738.67 1074.59C1738.67 1071.71 1737.47 1069.63 1735.07 1068.35C1732.83 1066.91 1729.71 1065.71 1725.71 1064.75L1714.67 1061.87C1703.15 1058.83 1694.03 1054.03 1687.31 1047.47C1680.75 1040.75 1677.47 1033.07 1677.47 1024.43C1677.47 1012.11 1681.39 1002.59 1689.23 995.867C1697.23 989.147 1708.51 985.787 1723.07 985.787C1730.59 985.787 1737.55 986.907 1743.95 989.147C1750.51 991.387 1756.11 994.507 1760.75 998.507C1765.39 1002.51 1768.59 1007.15 1770.35 1012.43L1744.19 1024.43C1743.07 1021.23 1740.35 1018.67 1736.03 1016.75C1731.71 1014.67 1727.39 1013.63 1723.07 1013.63C1718.75 1013.63 1715.39 1014.59 1712.99 1016.51C1710.75 1018.27 1709.63 1020.75 1709.63 1023.95C1709.63 1026.03 1710.75 1027.79 1712.99 1029.23C1715.23 1030.51 1718.43 1031.63 1722.59 1032.59L1738.19 1036.43C1746.03 1038.35 1752.27 1041.47 1756.91 1045.79C1761.71 1049.95 1765.15 1054.67 1767.23 1059.95C1769.47 1065.07 1770.59 1070.11 1770.59 1075.07C1770.59 1082.27 1768.43 1088.67 1764.11 1094.27C1759.95 1099.71 1754.19 1103.95 1746.83 1106.99C1739.63 1110.03 1731.39 1111.55 1722.11 1111.55ZM1838.46 1111.55C1825.18 1111.55 1815.1 1108.27 1808.22 1101.71C1801.5 1095.15 1798.14 1085.79 1798.14 1073.63V951.227H1829.82V1066.67C1829.82 1071.79 1830.94 1075.71 1833.18 1078.43C1835.42 1080.99 1838.7 1082.27 1843.02 1082.27C1844.62 1082.27 1846.38 1081.95 1848.3 1081.31C1850.22 1080.51 1852.22 1079.39 1854.3 1077.95L1865.34 1101.71C1861.5 1104.59 1857.18 1106.91 1852.38 1108.67C1847.74 1110.59 1843.1 1111.55 1838.46 1111.55ZM1778.7 1015.55V988.667H1859.82V1015.55H1778.7ZM1937.72 1111.55C1925.88 1111.55 1915.4 1108.91 1906.28 1103.63C1897.16 1098.19 1889.96 1090.75 1884.68 1081.31C1879.56 1071.87 1877 1060.99 1877 1048.67C1877 1036.35 1879.64 1025.47 1884.92 1016.03C1890.36 1006.59 1897.72 999.227 1907 993.947C1916.44 988.507 1927.24 985.787 1939.4 985.787C1949.96 985.787 1959.64 988.587 1968.44 994.187C1977.4 999.627 1984.52 1007.71 1989.8 1018.43C1995.24 1028.99 1997.96 1041.87 1997.96 1057.07H1907L1909.88 1054.19C1909.88 1060.11 1911.32 1065.31 1914.2 1069.79C1917.24 1074.11 1921.08 1077.47 1925.72 1079.87C1930.52 1082.11 1935.64 1083.23 1941.08 1083.23C1947.64 1083.23 1953 1081.87 1957.16 1079.15C1961.32 1076.27 1964.52 1072.59 1966.76 1068.11L1995.08 1079.15C1991.72 1085.87 1987.32 1091.71 1981.88 1096.67C1976.6 1101.47 1970.28 1105.15 1962.92 1107.71C1955.56 1110.27 1947.16 1111.55 1937.72 1111.55ZM1911.56 1036.43L1908.68 1033.55H1966.52L1963.88 1036.43C1963.88 1030.67 1962.52 1026.11 1959.8 1022.75C1957.08 1019.23 1953.72 1016.67 1949.72 1015.07C1945.88 1013.47 1942.12 1012.67 1938.44 1012.67C1934.76 1012.67 1930.84 1013.47 1926.68 1015.07C1922.52 1016.67 1918.92 1019.23 1915.88 1022.75C1913 1026.11 1911.56 1030.67 1911.56 1036.43ZM2016.37 1108.67V988.667H2046.13L2047.57 1004.27C2051.25 998.187 2055.97 993.627 2061.73 990.587C2067.49 987.387 2073.89 985.787 2080.93 985.787C2090.69 985.787 2098.85 987.867 2105.41 992.027C2112.13 996.187 2117.01 1002.59 2120.05 1011.23C2123.57 1003.07 2128.53 996.827 2134.93 992.507C2141.33 988.027 2148.77 985.787 2157.25 985.787C2171.33 985.787 2182.05 990.267 2189.41 999.227C2196.77 1008.03 2200.45 1021.63 2200.45 1040.03V1108.67H2168.77V1047.23C2168.77 1039.07 2167.89 1032.75 2166.13 1028.27C2164.37 1023.79 2161.97 1020.59 2158.93 1018.67C2155.89 1016.59 2152.29 1015.55 2148.13 1015.55C2140.45 1015.39 2134.53 1017.87 2130.37 1022.99C2126.21 1028.11 2124.13 1035.71 2124.13 1045.79V1108.67H2092.45V1047.23C2092.45 1039.07 2091.57 1032.75 2089.81 1028.27C2088.21 1023.79 2085.81 1020.59 2082.61 1018.67C2079.57 1016.59 2075.97 1015.55 2071.81 1015.55C2064.13 1015.39 2058.21 1017.87 2054.05 1022.99C2050.05 1028.11 2048.05 1035.71 2048.05 1045.79V1108.67H2016.37Z" fill="#323031"/>
<defs>
<filter id="filter0_bd_65_143" x="952.713" y="577.51" width="920.664" height="231.688" filterUnits="userSpaceOnUse" color-interpolation-filters="sRGB">
<feFlood flood-opacity="0" result="BackgroundImageFix"/>
<feGaussianBlur in="BackgroundImageFix" stdDeviation="8.53333"/>
<feComposite in2="SourceAlpha" operator="in" result="effect1_backgroundBlur_65_143"/>
<feColorMatrix in="SourceAlpha" type="matrix" values="0 0 0 0 0 0 0 0 0 0 0 0 0 0 0 0 0 0 127 0" result="hardAlpha"/>
<feOffset dy="8"/>
<feGaussianBlur stdDeviation="10"/>
<feComposite in2="hardAlpha" operator="out"/>
<feColorMatrix type="matrix" values="0 0 0 0 0 0 0 0 0 0 0 0 0 0 0 0 0 0 0.15 0"/>
<feBlend mode="normal" in2="effect1_backgroundBlur_65_143" result="effect2_dropShadow_65_143"/>
<feBlend mode="normal" in="SourceGraphic" in2="effect2_dropShadow_65_143" result="shape"/>
</filter>
<filter id="filter1_f_65_143" x="0" y="26" width="2838" height="1352" filterUnits="userSpaceOnUse" color-interpolation-filters="sRGB">
<feFlood flood-opacity="0" result="BackgroundImageFix"/>
<feBlend mode="normal" in="SourceGraphic" in2="BackgroundImageFix" result="shape"/>
<feGaussianBlur stdDeviation="256" result="effect1_foregroundBlur_65_143"/>
</filter>
<linearGradient id="paint0_linear_65_143" x1="967" y1="689.948" x2="1871" y2="689.948" gradientUnits="userSpaceOnUse">
<stop stop-color="#F72468"/>
<stop offset="0.505208" stop-color="#F65CF6"/>
<stop offset="1" stop-color="#FFAC04"/>
</linearGradient>
<linearGradient id="paint1_linear_65_143" x1="-6.65282e-06" y1="166.13" x2="1814" y2="166.13" gradientUnits="userSpaceOnUse">
<stop stop-color="#BF4069"/>
<stop offset="1" stop-color="#FEA907"/>
</linearGradient>
</defs>
</svg>
